<?xml version="1.0" standalone="no"?>
<!DOCTYPE svg PUBLIC "-//W3C//DTD SVG 20010904//EN"
 "http://www.w3.org/TR/2001/REC-SVG-20010904/DTD/svg10.dtd">
<svg version="1.0" xmlns="http://www.w3.org/2000/svg"
 width="700.000000pt" height="700.000000pt" viewBox="0 0 700.000000 700.000000"
 preserveAspectRatio="xMidYMid meet">
<metadata>
Created by potrace 1.14, written by Peter Selinger 2001-2017
</metadata>
<g transform="translate(0.000000,700.000000) scale(0.100000,-0.100000)"
fill="#000000" stroke="none">
<path d="M2409 6575 c-40 -22 -75 -75 -130 -197 -60 -131 -94 -185 -146 -225
-112 -87 -238 -109 -389 -69 -56 14 -311 73 -363 82 -12 3 -53 12 -90 20 -36
9 -73 17 -81 19 -32 7 -564 128 -755 172 -223 51 -292 59 -344 37 -41 -17 -86
-64 -100 -105 -11 -33 -7 -139 9 -219 6 -30 13 -70 16 -89 3 -18 7 -43 10 -54
2 -12 6 -39 9 -62 3 -22 10 -62 15 -90 5 -27 11 -63 14 -80 43 -287 54 -323
125 -414 46 -59 73 -85 123 -119 76 -51 92 -55 648 -173 286 -60 450 -98 472
-110 l23 -13 -25 -6 c-26 -6 -100 -6 -460 4 -195 5 -208 4 -248 -15 -52 -26
-79 -59 -88 -107 -22 -115 101 -285 281 -389 71 -41 125 -60 241 -83 118 -23
218 -62 300 -116 33 -22 64 -41 69 -44 34 -17 126 -109 178 -177 22 -29 41
-53 43 -53 2 0 12 7 21 15 10 8 74 57 143 110 69 53 139 107 155 120 17 13
104 81 195 151 91 70 194 150 230 178 36 28 214 165 395 305 182 141 335 260
341 266 7 5 24 19 40 30 15 11 75 58 133 103 58 46 114 90 125 97 19 14 23 9
-220 320 -32 41 -206 267 -311 404 -49 62 -101 130 -118 151 -16 20 -87 111
-157 201 -69 90 -136 175 -148 188 -46 48 -129 64 -181 36z"/>
<path d="M3820 4844 c-25 -19 -58 -46 -75 -59 -38 -30 -103 -80 -135 -104 -33
-25 -626 -485 -665 -515 -16 -13 -91 -71 -165 -128 -137 -105 -369 -285 -559
-433 -56 -44 -116 -89 -131 -101 l-29 -20 115 -165 c135 -192 132 -161 39
-394 -4 -11 -9 -24 -10 -30 -2 -5 -12 -32 -23 -60 -11 -27 -99 -273 -197 -545
-97 -272 -185 -517 -196 -545 -23 -62 -270 -757 -298 -842 -63 -188 19 -378
199 -462 46 -22 69 -26 140 -26 72 0 93 4 141 27 31 16 77 49 103 75 53 54 56
60 581 1138 51 105 135 277 187 383 l95 194 125 -178 125 -178 -49 -71 c-83
-123 -102 -197 -111 -440 l-2 -50 -95 -6 c-324 -22 -550 -194 -566 -434 -11
-171 97 -327 276 -398 36 -14 79 -28 95 -31 17 -3 50 -9 75 -14 25 -5 659 -8
1410 -7 l1365 1 103 22 c159 35 280 88 379 169 71 58 69 56 122 122 182 232
214 568 89 937 l-21 61 33 34 c61 63 196 224 251 299 251 341 393 658 443 990
14 92 15 363 2 420 -3 14 -9 41 -12 60 -47 263 -127 321 -231 165 -11 -16 -42
-70 -68 -120 -188 -351 -408 -656 -653 -909 -87 -90 -229 -216 -242 -216 -9 0
-20 14 -234 285 -91 116 -169 215 -174 220 -4 6 -54 69 -110 140 -56 72 -105
135 -110 140 -11 14 -337 431 -425 543 -71 92 -157 202 -180 232 -7 8 -160
205 -341 438 -180 232 -331 422 -335 421 -3 0 -26 -16 -51 -35z"/>
</g>
</svg>
